<svg xmlns="http://www.w3.org/2000/svg" width="5858.667" height="5848" version="1.0" viewBox="0 0 4394 4386">
  <path d="M1902.6 16.6c-24.8 26.5-28.8 33.4-38.5 65.9-8.6 28.7-117.4 392.5-129.5 432.9l-10.1 33.8-30 10.3c-93.7 32-143.6 52.9-243 102-40.8 20.1-46.3 22.6-48.7 21.7-4-1.5-112.6-59.3-184.8-98.5-35.5-19.2-83.6-45.3-107-58-23.4-12.6-60.9-33.1-83.5-45.5C977.5 453.7 939 433 921 424l-13.5-6.8-22 20.5c-49.1 45.8-187.7 182.9-349.3 345.4L435.1 884.6l22.1 40c12.1 21.9 33.5 61.3 47.5 87.4 14.1 26.1 31.3 57.8 38.3 70.5 17.9 32.5 64 117.7 135.7 251 4.2 7.7 10 18.2 13 23.2 7.4 12.4 7.7 15.3 2.8 26.9-2.1 4.9-14.7 31.2-28 58.4-42.4 86.5-66 142.4-96.1 227.5-4.1 11.5-8.7 23-10.2 25.5-3.1 5-7.8 8.1-16.7 10.9-34.8 11.1-75.9 23.7-88 27.1-8.2 2.3-29.8 8.6-48 14-18.1 5.4-50.1 14.8-71 21-20.9 6.1-71.3 21.1-112 33.2-40.7 12.1-92 27.4-114 33.8-58.9 17.4-57.8 16.8-81.8 39.5-9.5 9-19.1 18.3-21.5 20.7l-4.3 4.5.4 286.9c.3 188.6.8 289.5 1.5 294.6 1.6 11.6 2.8 14.5 7 16.7 6.2 3.2 26.6 9.6 82.2 26.1 29.4 8.7 63.4 18.8 75.5 22.4 12.1 3.6 45 13.2 73 21.4 28.1 8.3 68.3 20.2 89.5 26.5 21.2 6.4 61.7 18.4 90 26.7 67.1 19.8 105.1 31.5 110 34 6 3.1 8.5 7.9 15.1 28.5 3.4 10.4 9.2 28.9 13.1 41 29.4 92.3 61.2 169.4 111.3 269.5l17.8 35.5-8.3 16c-11.2 21.6-26 49.2-52 97-29.5 54.2-64.9 119.6-78.3 144.5-6 11.3-25 46.4-42.2 78-17.2 31.6-44.2 81.5-60 110.9l-28.7 53.4 212.3 212.3 212.2 212.2 13.7-6.8c15.9-8 56.2-29.6 90.5-48.5 39.5-21.8 109.2-59.7 171.5-93.2 32.2-17.4 70.2-38 84.6-45.8 50.4-27.7 81.3-44.3 113.4-60.8l20.5-10.5 54.5 27.2c54.7 27.3 83.3 40.8 118.5 56.1 18.3 7.9 27.1 11.4 79 31.9 20.6 8.1 59.7 21.1 105 35.1 12.8 4 16.2 6.2 19.6 12.7 1 2 6.6 20 12.5 40 5.8 20 16.2 55 23.1 77.8 16 53 18.8 62.4 32.2 108.5 6.1 20.9 20.7 70.4 32.6 110 11.8 39.6 29.9 100.2 40.2 134.7l18.8 62.8 301.5-.1h301.5l19.2-23.2c27.6-33.3 25.8-30.5 29.6-45.4 1.9-7 7.8-27.7 13.1-45.8 19.5-66.1 28.1-94.9 41.1-138.5 7.3-24.5 23.1-77.4 35-117.5 26.3-88.6 39.7-133.1 47.6-157.3 5.7-17.3 6.2-18.4 9.7-20.7 6.1-4 20.4-9.8 43.2-17.5 76.2-25.7 148.2-56.6 248.1-106.6l48.7-24.3 6.8 3.6c21.3 11.2 206.8 111.3 277.4 149.8 21.9 11.9 78.3 42.4 146 78.8 33.9 18.2 57.4 30 62.1 31.2 2.2.5 3.9-.6 12-7.8 49.9-44.7 391.8-387.7 447.3-448.7 4.7-5.2 8.6-10.3 8.6-11.4 0-2.9-6.7-16.3-20.7-41.6-7.2-12.9-19.7-35.9-27.8-51-8.1-15.1-25.9-48-39.5-73-13.6-25-39.2-72.5-57-105.5-33.1-61.5-99.4-183.3-110.4-203-7.6-13.4-10.6-20.4-10.6-24.4s6.8-19.7 19.4-45c14.5-28.8 29.1-59.8 40-84.5 8.9-20.2 12.8-29.5 33.7-80.6 5-12.4 15.4-41.2 22.9-64 14.8-44.5 20.9-60.4 23.7-62.6 4.9-3.6 23.9-10 76.3-25.5 22.3-6.7 47-14.1 55-16.6 8-2.5 29.6-8.9 48-14.3 57.8-16.9 74.7-21.9 102-30 14.6-4.4 35.3-10.5 46-13.5 10.7-3.1 37.3-11 59-17.5 21.7-6.5 51.4-15.3 66-19.5 30.8-8.9 39.5-12.1 47.9-17.5 3.3-2.1 14.4-11.8 24.6-21.5l18.5-17.7-.2-301-.3-301.1-14.5-4.9c-21.7-7.3-101.1-31.2-145-43.6-24.4-7-44.3-12.8-82-24.2-17.9-5.4-52.5-15.8-77-23-24.5-7.2-61.8-18.3-83-24.5-21.2-6.3-51.8-15.3-68-20-16.2-4.8-34.2-10.2-40-12-5.8-1.9-15.8-5-22.2-7l-11.7-3.6-12-36.2c-14.3-43.4-21.9-64.7-35.6-99.2-29.4-74.3-62.1-144.7-92.6-199.5-7.8-14-14.2-26-14.2-26.5 0-.6 8.1-15.6 18-33.5 18.4-33.3 30.7-56 111.5-205.5 25.6-47.3 62.4-115.3 81.8-151 19.4-35.8 39.7-73.7 45.3-84.4l10-19.3-94.4-94.5c-155.2-155.3-281.8-280-315.4-310.6-15-13.6-13.5-13.6-37 .2-4.9 2.9-32.4 17.9-61 33.3-28.6 15.5-75.2 40.7-103.5 56.1-28.3 15.4-82.8 44.9-121 65.5s-93.6 50.6-123 66.7c-29.5 16.1-55.6 30.3-58 31.5l-4.5 2.1-50.5-24.9c-107.5-53.1-144.7-68.4-253.3-104.3l-51.8-17.1-2.9-4c-5.2-7.2-7.5-13.9-26-77.8-5-17.3-28.2-95.2-51.5-173s-45.8-153.2-50-167.5c-4.2-14.3-11.9-40-17-57-5.1-17.1-10.3-34.8-11.5-39.4-2.8-10.9-4.3-13.8-7.7-14.5-9-2-89.6-2.8-332.3-3.3l-269.5-.5-13.9 14.8zM2203 1409.1c31 1.1 68.4 3.3 85 5 21.3 2.2 79 14.3 109.9 23 101.3 28.6 229.8 99 308.1 168.9 58 51.8 105.3 105.8 144.5 165 59.2 89.4 97.5 184.1 120 296.5 8.5 42.8 10.4 64.4 11.2 127 .9 79.7-2.3 128.7-11.3 170.5-1.4 6.3-4.3 20.3-6.4 31.1-6.1 30.2-18.3 67.8-37.4 115.1-33.9 83.9-76.8 157.1-128.2 218.9-15.2 18.3-55.8 59.3-73.5 74.2-110.9 93.4-270.4 158-427.9 173.2-57.4 5.5-110 4.7-168.5-2.6-71.2-8.9-107-16.9-163.9-37.1-75.4-26.6-126.4-51.2-183.2-88.3-171.9-112.4-298.5-287.7-346.8-480.4-15.7-62.4-21.4-111.8-22.3-193.8-.7-60 1.2-97.9 6.7-130.8 2.8-16.9 8.9-49 11.1-59 9.3-40.4 27.1-93.1 47.9-141.5 32.6-75.8 78.7-147.9 128.9-201.5 75-80.1 197-155.7 317.7-196.8 43-14.7 71.2-20.9 149.7-33.3 33.4-5.3 56.8-5.9 128.7-3.3z"/>
</svg>
